<?xml version="1.0" encoding="utf-8"?>
<!-- Generator: Adobe Illustrator 16.0.0, SVG Export Plug-In . SVG Version: 6.00 Build 0)  -->
<!DOCTYPE svg PUBLIC "-//W3C//DTD SVG 1.1//EN" "http://www.w3.org/Graphics/SVG/1.1/DTD/svg11.dtd">
<svg version="1.1" xmlns="http://www.w3.org/2000/svg" xmlns:xlink="http://www.w3.org/1999/xlink" x="0px" y="0px"
	 width="282.197px" height="71.6px" viewBox="0 0 282.197 71.6" enable-background="new 0 0 282.197 71.6" xml:space="preserve">
<g id="White_Background" display="none">
	<rect x="-39.901" y="-131.77" display="inline" fill="#FFFFFF" width="360" height="360"/>
</g>
<g id="Wordmark">
	<rect x="-39.901" y="-131.77" display="none" fill="#FFFFFF" width="360" height="360"/>
	<g>
		<g>
			<path fill="#EEEEEE" d="M26.8,67.1c3.4,0,6.441-0.592,9.125-1.775c2.683-1.182,4.958-2.824,6.825-4.924
				c1.867-2.102,3.292-4.576,4.275-7.426c0.982-2.85,1.475-5.925,1.475-9.225V0h5.1v43.75c0,3.9-0.617,7.541-1.85,10.924
				c-1.233,3.385-3.008,6.334-5.325,8.852c-2.317,2.516-5.134,4.492-8.45,5.924c-3.317,1.434-7.042,2.15-11.175,2.15
				c-4.134,0-7.859-0.717-11.175-2.15c-3.317-1.432-6.133-3.408-8.45-5.924c-2.317-2.518-4.092-5.467-5.325-8.852
				C0.617,51.291,0,47.65,0,43.75V0h5.15v43.7c0,3.3,0.491,6.374,1.475,9.224c0.983,2.852,2.4,5.326,4.25,7.426
				c1.85,2.1,4.117,3.75,6.8,4.949C20.358,66.5,23.4,67.1,26.8,67.1z"/>
			<path fill="#EEEEEE" d="M143.499,0v70.75h-4.449v-60.3c0-0.867,0.05-1.783,0.149-2.75l-27.85,49.45
				c-0.467,0.867-1.134,1.299-2,1.299h-0.8c-0.867,0-1.534-0.432-2-1.299L77.949,7.6c0.1,1,0.15,1.95,0.15,2.851v60.3h-4.5V0h3.55
				c0.466,0,0.833,0.05,1.1,0.149c0.266,0.101,0.533,0.367,0.8,0.801l28.55,49.2c0.5,0.934,0.933,1.934,1.3,3
				c0.2-0.533,0.417-1.059,0.65-1.576c0.233-0.516,0.483-1.008,0.75-1.475L138.05,0.95c0.266-0.434,0.541-0.7,0.824-0.801
				C139.157,0.05,139.532,0,139.999,0H143.499z"/>
			<path fill="#EEEEEE" d="M184.748,0c4.033,0,7.533,0.399,10.5,1.2c2.967,0.8,5.417,1.975,7.351,3.524
				c1.933,1.55,3.366,3.442,4.3,5.675c0.933,2.234,1.399,4.768,1.399,7.601c0,1.867-0.324,3.667-0.975,5.399
				c-0.65,1.734-1.584,3.334-2.8,4.801c-1.218,1.467-2.718,2.742-4.5,3.824c-1.784,1.084-3.825,1.909-6.125,2.476
				c5.566,0.8,9.841,2.642,12.825,5.524c2.982,2.884,4.475,6.676,4.475,11.376c0,3-0.533,5.699-1.6,8.1
				c-1.067,2.4-2.617,4.434-4.65,6.1c-2.033,1.668-4.533,2.941-7.5,3.824c-2.967,0.885-6.334,1.326-10.1,1.326h-22.95V0H184.748z
				 M169.548,4.05V33.1h15.301c3.266,0,6.058-0.416,8.375-1.25c2.316-0.833,4.216-1.933,5.699-3.3
				c1.483-1.366,2.575-2.916,3.275-4.65c0.7-1.732,1.05-3.516,1.05-5.35c0-4.767-1.509-8.375-4.524-10.825
				c-3.018-2.45-7.676-3.675-13.976-3.675H169.548z M187.298,66.65c6.2,0,10.892-1.342,14.075-4.025
				c3.183-2.684,4.775-6.459,4.775-11.326c0-2.232-0.425-4.24-1.275-6.023c-0.85-1.783-2.075-3.301-3.675-4.551
				s-3.567-2.208-5.9-2.875c-2.333-0.666-4.983-1-7.949-1h-17.801V66.65H187.298z"/>
			<path fill="#EEEEEE" d="M282.197,0v70.75h-2.399c-0.434,0-0.793-0.076-1.075-0.225c-0.284-0.15-0.559-0.408-0.825-0.775
				l-45.95-61.4c0.101,1,0.15,1.95,0.15,2.851v59.55h-4.5V0h2.55c0.467,0,0.825,0.059,1.075,0.175
				c0.25,0.117,0.524,0.375,0.825,0.775l45.85,61.249c-0.1-1-0.15-1.949-0.15-2.85V0H282.197z"/>
		</g>
		<g display="none">
			<path display="inline" fill="#154985" d="M6.705,84.852v9.496H6.013v-4.551H0.066v4.551h-0.691v-9.496h0.691v4.43h5.947v-4.43
				H6.705z"/>
			<path display="inline" fill="#154985" d="M12.987,93.857c0.457,0,0.865-0.078,1.225-0.238c0.36-0.158,0.666-0.379,0.917-0.66
				c0.25-0.283,0.442-0.615,0.574-0.996c0.132-0.385,0.198-0.797,0.198-1.24v-5.871h0.685v5.871c0,0.525-0.083,1.012-0.249,1.467
				s-0.404,0.852-0.714,1.188c-0.312,0.338-0.689,0.604-1.135,0.797c-0.445,0.191-0.945,0.287-1.5,0.287
				c-0.555,0-1.054-0.096-1.5-0.287c-0.445-0.193-0.823-0.459-1.135-0.797c-0.311-0.336-0.549-0.732-0.715-1.188
				c-0.165-0.455-0.248-0.941-0.248-1.467v-5.871h0.691v5.865c0,0.441,0.066,0.855,0.198,1.238s0.322,0.715,0.571,0.996
				c0.248,0.281,0.552,0.504,0.913,0.666C12.123,93.777,12.531,93.857,12.987,93.857z"/>
			<path display="inline" fill="#154985" d="M28.653,84.852v9.496h-0.598v-8.096c0-0.115,0.007-0.238,0.021-0.367l-3.739,6.637
				c-0.062,0.117-0.152,0.176-0.269,0.176h-0.107c-0.116,0-0.206-0.059-0.269-0.176l-3.839-6.65
				c0.014,0.135,0.021,0.262,0.021,0.381v8.096H19.27v-9.496h0.476c0.062,0,0.112,0.004,0.148,0.018
				c0.036,0.014,0.071,0.051,0.107,0.109l3.833,6.604c0.067,0.127,0.125,0.26,0.175,0.404c0.026-0.072,0.056-0.143,0.087-0.213
				c0.032-0.068,0.065-0.135,0.101-0.199l3.725-6.596c0.036-0.059,0.073-0.096,0.111-0.109c0.038-0.014,0.088-0.018,0.151-0.018
				H28.653z"/>
			<path display="inline" fill="#154985" d="M38.68,94.348h-0.53c-0.062,0-0.114-0.016-0.154-0.051
				c-0.04-0.033-0.072-0.076-0.094-0.131l-1.114-2.758h-4.665l-1.114,2.758c-0.019,0.051-0.05,0.092-0.094,0.127
				c-0.044,0.037-0.099,0.055-0.161,0.055H30.23l3.886-9.496h0.678L38.68,94.348z M36.579,90.898l-1.933-4.801
				c-0.067-0.156-0.132-0.344-0.194-0.562c-0.027,0.107-0.056,0.209-0.087,0.305s-0.065,0.186-0.101,0.266l-1.934,4.793H36.579z"/>
			<path display="inline" fill="#154985" d="M47.587,84.852v9.496h-0.322c-0.059,0-0.106-0.01-0.145-0.029
				c-0.038-0.021-0.075-0.057-0.11-0.104l-6.169-8.244c0.014,0.135,0.021,0.262,0.021,0.383v7.994h-0.604v-9.496H40.6
				c0.062,0,0.111,0.006,0.144,0.021c0.034,0.016,0.071,0.051,0.111,0.105l6.155,8.223c-0.014-0.137-0.021-0.264-0.021-0.385v-7.965
				H47.587z"/>
			<path display="inline" fill="#154985" d="M49.917,90.092h3.121v0.545h-3.121V90.092z"/>
			<path display="inline" fill="#154985" d="M62.212,92.752c0.045,0,0.083,0.014,0.114,0.045l0.269,0.289
				c-0.197,0.211-0.411,0.4-0.641,0.566c-0.23,0.168-0.483,0.311-0.758,0.432c-0.275,0.117-0.577,0.209-0.906,0.273
				s-0.69,0.098-1.084,0.098c-0.658,0-1.261-0.115-1.809-0.346s-1.019-0.557-1.413-0.98c-0.394-0.422-0.699-0.934-0.916-1.533
				c-0.218-0.6-0.326-1.266-0.326-2c0-0.719,0.112-1.379,0.336-1.973c0.224-0.596,0.537-1.107,0.939-1.535
				c0.403-0.426,0.886-0.758,1.45-0.992c0.563-0.236,1.186-0.354,1.866-0.354c0.649,0,1.224,0.102,1.725,0.303
				c0.501,0.201,0.958,0.486,1.369,0.854l-0.208,0.301c-0.036,0.053-0.092,0.08-0.168,0.08c-0.053,0-0.141-0.049-0.262-0.146
				s-0.289-0.209-0.503-0.326c-0.215-0.119-0.482-0.227-0.803-0.326c-0.319-0.098-0.704-0.148-1.151-0.148
				c-0.573,0-1.097,0.102-1.574,0.297c-0.476,0.197-0.886,0.479-1.228,0.846s-0.609,0.814-0.802,1.344
				c-0.193,0.527-0.289,1.119-0.289,1.777c0,0.67,0.097,1.27,0.292,1.799c0.194,0.527,0.461,0.975,0.802,1.34
				c0.34,0.363,0.742,0.643,1.205,0.838c0.462,0.195,0.963,0.293,1.5,0.293c0.34,0,0.643-0.023,0.909-0.066
				c0.266-0.045,0.512-0.113,0.735-0.203s0.432-0.199,0.624-0.328c0.192-0.131,0.383-0.283,0.57-0.457
				c0.022-0.018,0.045-0.033,0.067-0.045C62.168,92.758,62.19,92.752,62.212,92.752z"/>
			<path display="inline" fill="#154985" d="M70.14,93.777l-0.013,0.57h-5.692v-9.496h5.692v0.57h-5v3.838h4.161v0.557h-4.161v3.961
				H70.14z"/>
			<path display="inline" fill="#154985" d="M79.55,84.852v9.496h-0.322c-0.058,0-0.106-0.01-0.145-0.029
				c-0.038-0.021-0.075-0.057-0.11-0.104l-6.168-8.244c0.013,0.135,0.02,0.262,0.02,0.383v7.994H72.22v-9.496h0.342
				c0.063,0,0.111,0.006,0.144,0.021c0.034,0.016,0.071,0.051,0.111,0.105l6.155,8.223c-0.013-0.137-0.02-0.264-0.02-0.385v-7.965
				H79.55z"/>
			<path display="inline" fill="#154985" d="M88.531,85.436h-3.336v8.912h-0.691v-8.912h-3.356v-0.584h7.383V85.436z"/>
			<path display="inline" fill="#154985" d="M95.833,93.777l-0.014,0.57h-5.691v-9.496h5.691v0.57h-5v3.838h4.161v0.557h-4.161
				v3.961H95.833z"/>
			<path display="inline" fill="#154985" d="M104.464,94.348h-0.591c-0.076,0-0.14-0.012-0.191-0.037
				c-0.051-0.025-0.099-0.068-0.144-0.137l-3.047-3.854c-0.036-0.049-0.073-0.092-0.11-0.127c-0.038-0.035-0.081-0.064-0.128-0.084
				c-0.047-0.021-0.103-0.035-0.167-0.043c-0.065-0.01-0.145-0.014-0.239-0.014h-1.241v4.295h-0.691v-9.496h2.43
				c1.092,0,1.91,0.209,2.453,0.633c0.544,0.422,0.815,1.043,0.815,1.863c0,0.361-0.062,0.693-0.188,0.992
				c-0.125,0.301-0.305,0.562-0.54,0.789c-0.235,0.227-0.519,0.41-0.853,0.555c-0.333,0.143-0.708,0.24-1.124,0.287
				c0.107,0.068,0.203,0.158,0.289,0.27L104.464,94.348z M100.25,89.541c0.42,0,0.797-0.051,1.131-0.15
				c0.333-0.1,0.615-0.244,0.845-0.432c0.23-0.189,0.407-0.414,0.527-0.678c0.121-0.266,0.182-0.562,0.182-0.893
				c0-0.678-0.221-1.18-0.662-1.504c-0.441-0.326-1.084-0.49-1.93-0.49h-1.738v4.146H100.25z"/>
			<path display="inline" fill="#154985" d="M111.768,93.777l-0.014,0.57h-5.691v-9.496h5.691v0.57h-5v3.838h4.161v0.557h-4.161
				v3.961H111.768z"/>
			<path display="inline" fill="#154985" d="M121.849,89.596c0,0.734-0.11,1.393-0.329,1.979c-0.219,0.588-0.528,1.086-0.926,1.498
				c-0.399,0.412-0.876,0.729-1.434,0.947s-1.171,0.328-1.842,0.328h-3.47v-9.496h3.47c0.671,0,1.285,0.109,1.842,0.326
				c0.557,0.221,1.035,0.537,1.434,0.947c0.398,0.412,0.707,0.912,0.926,1.498S121.849,88.867,121.849,89.596z M121.137,89.596
				c0-0.662-0.092-1.254-0.275-1.771c-0.184-0.52-0.443-0.959-0.779-1.316c-0.335-0.357-0.738-0.631-1.208-0.818
				s-0.989-0.281-1.557-0.281h-2.779v8.383h2.779c0.568,0,1.087-0.094,1.557-0.283c0.47-0.186,0.873-0.459,1.208-0.818
				c0.336-0.357,0.596-0.797,0.779-1.314C121.045,90.855,121.137,90.262,121.137,89.596z"/>
			<path display="inline" fill="#154985" d="M135.696,89.596c0,0.734-0.11,1.393-0.33,1.979c-0.218,0.588-0.528,1.086-0.926,1.498
				c-0.399,0.412-0.875,0.729-1.432,0.947s-1.172,0.328-1.843,0.328h-3.47v-9.496h3.47c0.671,0,1.286,0.109,1.843,0.326
				c0.557,0.221,1.033,0.537,1.432,0.947c0.397,0.412,0.708,0.912,0.926,1.498C135.586,88.209,135.696,88.867,135.696,89.596z
				 M134.984,89.596c0-0.662-0.093-1.254-0.276-1.771c-0.183-0.52-0.443-0.959-0.779-1.316s-0.738-0.631-1.207-0.818
				c-0.47-0.188-0.989-0.281-1.558-0.281h-2.778v8.383h2.778c0.569,0,1.087-0.094,1.558-0.283c0.469-0.186,0.872-0.459,1.207-0.818
				c0.335-0.357,0.596-0.797,0.779-1.314C134.892,90.855,134.984,90.262,134.984,89.596z"/>
			<path display="inline" fill="#154985" d="M143.604,93.777l-0.014,0.57h-5.692v-9.496h5.692v0.57h-5v3.838h4.162v0.557h-4.162
				v3.961H143.604z"/>
			<path display="inline" fill="#154985" d="M150.295,86.006c-0.041,0.074-0.099,0.113-0.176,0.113
				c-0.058,0-0.133-0.043-0.224-0.125c-0.093-0.084-0.216-0.174-0.374-0.273c-0.156-0.104-0.351-0.195-0.586-0.279
				c-0.235-0.086-0.524-0.129-0.87-0.129c-0.345,0-0.647,0.051-0.909,0.148c-0.263,0.1-0.48,0.232-0.658,0.404
				c-0.177,0.17-0.31,0.365-0.402,0.59c-0.093,0.223-0.137,0.459-0.137,0.703c0,0.324,0.067,0.59,0.204,0.801
				c0.137,0.209,0.316,0.389,0.54,0.535c0.224,0.148,0.478,0.271,0.761,0.375c0.286,0.1,0.577,0.197,0.878,0.297
				c0.299,0.1,0.592,0.207,0.875,0.324c0.283,0.121,0.538,0.27,0.762,0.447c0.224,0.18,0.404,0.4,0.54,0.662
				c0.137,0.262,0.206,0.586,0.206,0.975c0,0.4-0.069,0.773-0.206,1.127c-0.136,0.352-0.334,0.654-0.594,0.916
				c-0.259,0.258-0.577,0.465-0.953,0.613c-0.376,0.15-0.806,0.225-1.289,0.225c-0.627,0-1.165-0.109-1.618-0.332
				c-0.451-0.221-0.848-0.523-1.188-0.91l0.189-0.295c0.052-0.066,0.115-0.102,0.187-0.102c0.041,0,0.093,0.027,0.154,0.082
				c0.063,0.053,0.139,0.119,0.229,0.197c0.089,0.08,0.196,0.164,0.322,0.256c0.125,0.092,0.27,0.176,0.436,0.256
				c0.166,0.076,0.354,0.143,0.57,0.195c0.214,0.055,0.459,0.082,0.73,0.082c0.376,0,0.712-0.059,1.009-0.172
				c0.295-0.113,0.544-0.27,0.748-0.467c0.202-0.195,0.358-0.43,0.467-0.701c0.105-0.27,0.159-0.559,0.159-0.867
				c0-0.338-0.067-0.613-0.204-0.83s-0.316-0.398-0.54-0.543c-0.224-0.146-0.478-0.268-0.761-0.367
				c-0.286-0.098-0.577-0.193-0.878-0.289c-0.299-0.094-0.592-0.197-0.875-0.316c-0.283-0.115-0.538-0.264-0.762-0.445
				c-0.224-0.18-0.404-0.406-0.539-0.678c-0.138-0.27-0.207-0.609-0.207-1.016c0-0.318,0.062-0.625,0.182-0.92
				c0.121-0.295,0.299-0.555,0.53-0.783c0.233-0.225,0.521-0.406,0.863-0.543c0.342-0.137,0.732-0.205,1.171-0.205
				c0.493,0,0.935,0.08,1.326,0.236c0.391,0.156,0.748,0.395,1.069,0.717L150.295,86.006z"/>
			<path display="inline" fill="#154985" d="M153.557,94.348h-0.692v-9.496h0.692V94.348z"/>
			<path display="inline" fill="#154985" d="M163.945,90.039v3.375c-0.474,0.336-0.979,0.594-1.517,0.773
				c-0.536,0.178-1.142,0.268-1.812,0.268c-0.752,0-1.427-0.115-2.026-0.346s-1.11-0.557-1.534-0.98
				c-0.422-0.422-0.746-0.934-0.974-1.533c-0.226-0.6-0.338-1.266-0.338-2c0-0.732,0.11-1.4,0.332-1.996
				c0.222-0.598,0.54-1.107,0.952-1.531c0.415-0.424,0.914-0.75,1.5-0.98c0.588-0.23,1.247-0.346,1.982-0.346
				c0.362,0,0.695,0.025,1.002,0.074s0.592,0.123,0.856,0.219c0.264,0.096,0.511,0.215,0.738,0.355s0.447,0.303,0.657,0.486
				l-0.188,0.297c-0.063,0.105-0.158,0.131-0.283,0.072c-0.065-0.027-0.162-0.088-0.287-0.189c-0.125-0.098-0.299-0.199-0.517-0.307
				c-0.22-0.107-0.491-0.203-0.815-0.289c-0.326-0.084-0.721-0.129-1.186-0.129c-0.617,0-1.176,0.102-1.676,0.297
				c-0.497,0.197-0.923,0.479-1.274,0.846c-0.351,0.367-0.622,0.814-0.812,1.344c-0.19,0.527-0.285,1.119-0.285,1.777
				c0,0.666,0.095,1.266,0.285,1.799c0.189,0.533,0.465,0.984,0.825,1.357c0.36,0.369,0.798,0.654,1.313,0.852
				c0.513,0.197,1.093,0.295,1.736,0.295c0.283,0,0.544-0.018,0.783-0.055c0.239-0.035,0.467-0.086,0.685-0.15
				s0.428-0.146,0.63-0.242c0.204-0.096,0.411-0.205,0.621-0.324v-2.559h-1.818c-0.05,0-0.091-0.016-0.125-0.047
				c-0.033-0.029-0.05-0.066-0.05-0.107v-0.375H163.945z"/>
			<path display="inline" fill="#154985" d="M173.558,84.852v9.496h-0.321c-0.058,0-0.106-0.01-0.145-0.029
				c-0.039-0.021-0.075-0.057-0.112-0.104l-6.167-8.244c0.014,0.135,0.02,0.262,0.02,0.383v7.994h-0.604v-9.496h0.341
				c0.063,0,0.112,0.006,0.145,0.021c0.035,0.016,0.071,0.051,0.112,0.105l6.153,8.223c-0.014-0.137-0.019-0.264-0.019-0.385v-7.965
				H173.558z"/>
			<path display="inline" fill="#154985" d="M186.86,92.752c0.044,0,0.083,0.014,0.114,0.045l0.27,0.289
				c-0.198,0.211-0.411,0.4-0.642,0.566c-0.229,0.168-0.484,0.311-0.758,0.432c-0.276,0.117-0.579,0.209-0.906,0.273
				c-0.33,0.064-0.69,0.098-1.086,0.098c-0.657,0-1.261-0.115-1.808-0.346c-0.548-0.23-1.021-0.557-1.413-0.98
				c-0.394-0.422-0.698-0.934-0.916-1.533s-0.326-1.266-0.326-2c0-0.719,0.112-1.379,0.336-1.973
				c0.224-0.596,0.538-1.107,0.94-1.535c0.401-0.426,0.885-0.758,1.45-0.992c0.562-0.236,1.186-0.354,1.866-0.354
				c0.647,0,1.222,0.102,1.724,0.303c0.501,0.201,0.958,0.486,1.37,0.854l-0.208,0.301c-0.037,0.053-0.093,0.08-0.168,0.08
				c-0.054,0-0.143-0.049-0.262-0.146c-0.122-0.098-0.289-0.209-0.504-0.326c-0.216-0.119-0.481-0.227-0.802-0.326
				c-0.319-0.098-0.703-0.148-1.15-0.148c-0.575,0-1.1,0.102-1.575,0.297c-0.477,0.197-0.885,0.479-1.229,0.846
				c-0.343,0.367-0.609,0.814-0.802,1.344c-0.192,0.527-0.289,1.119-0.289,1.777c0,0.67,0.099,1.27,0.293,1.799
				c0.194,0.527,0.461,0.975,0.802,1.34c0.34,0.363,0.74,0.643,1.205,0.838c0.463,0.195,0.962,0.293,1.5,0.293
				c0.339,0,0.642-0.023,0.91-0.066c0.266-0.045,0.511-0.113,0.734-0.203s0.432-0.199,0.625-0.328
				c0.19-0.131,0.381-0.283,0.568-0.457c0.023-0.018,0.046-0.033,0.067-0.045C186.816,92.758,186.837,92.752,186.86,92.752z"/>
			<path display="inline" fill="#154985" d="M197.357,89.596c0,0.734-0.109,1.398-0.327,1.996c-0.22,0.598-0.528,1.109-0.928,1.531
				c-0.397,0.422-0.875,0.75-1.433,0.979c-0.557,0.232-1.172,0.346-1.843,0.346s-1.284-0.113-1.839-0.346
				c-0.556-0.229-1.031-0.557-1.429-0.979c-0.399-0.422-0.708-0.934-0.928-1.531s-0.327-1.262-0.327-1.996
				c0-0.729,0.107-1.393,0.327-1.99s0.528-1.107,0.928-1.531c0.397-0.422,0.873-0.75,1.429-0.982c0.555-0.234,1.168-0.35,1.839-0.35
				s1.286,0.115,1.843,0.346c0.558,0.23,1.035,0.559,1.433,0.982c0.399,0.426,0.708,0.938,0.928,1.535
				C197.248,88.203,197.357,88.867,197.357,89.596z M196.646,89.596c0-0.662-0.091-1.258-0.275-1.785
				c-0.184-0.529-0.442-0.977-0.777-1.342c-0.336-0.367-0.738-0.648-1.209-0.844c-0.471-0.193-0.989-0.293-1.558-0.293
				c-0.562,0-1.079,0.1-1.55,0.293c-0.471,0.195-0.873,0.477-1.211,0.844c-0.339,0.365-0.602,0.812-0.786,1.342
				c-0.186,0.527-0.278,1.123-0.278,1.785c0,0.666,0.093,1.262,0.278,1.789c0.185,0.525,0.447,0.971,0.786,1.34
				c0.338,0.365,0.74,0.645,1.211,0.838s0.987,0.289,1.55,0.289c0.568,0,1.087-0.096,1.558-0.289s0.873-0.473,1.209-0.838
				c0.335-0.369,0.594-0.814,0.777-1.34C196.556,90.857,196.646,90.262,196.646,89.596z"/>
			<path display="inline" fill="#154985" d="M204.735,93.764v0.584h-5.189v-9.496h0.692v8.912H204.735z"/>
			<path display="inline" fill="#154985" d="M211.527,93.764v0.584h-5.189v-9.496h0.692v8.912H211.527z"/>
			<path display="inline" fill="#154985" d="M220.354,94.348h-0.53c-0.062,0-0.113-0.016-0.154-0.051
				c-0.04-0.033-0.071-0.076-0.095-0.131l-1.114-2.758h-4.663l-1.114,2.758c-0.02,0.051-0.051,0.092-0.095,0.127
				c-0.044,0.037-0.099,0.055-0.162,0.055h-0.522l3.887-9.496h0.677L220.354,94.348z M218.252,90.898l-1.932-4.801
				c-0.067-0.156-0.133-0.344-0.194-0.562c-0.027,0.107-0.057,0.209-0.089,0.305c-0.031,0.096-0.063,0.186-0.101,0.266l-1.932,4.793
				H218.252z"/>
			<path display="inline" fill="#154985" d="M224.662,84.852c0.542,0,1.013,0.053,1.411,0.158c0.397,0.109,0.727,0.268,0.985,0.475
				c0.26,0.209,0.453,0.461,0.578,0.762c0.126,0.299,0.188,0.641,0.188,1.02c0,0.252-0.043,0.494-0.132,0.725
				c-0.086,0.234-0.212,0.447-0.376,0.645c-0.161,0.199-0.364,0.369-0.603,0.516c-0.239,0.145-0.514,0.256-0.821,0.33
				c0.746,0.109,1.32,0.355,1.721,0.742c0.399,0.389,0.6,0.896,0.6,1.527c0,0.404-0.071,0.766-0.214,1.088
				c-0.145,0.322-0.351,0.596-0.624,0.818c-0.274,0.225-0.609,0.396-1.007,0.514c-0.398,0.119-0.85,0.178-1.357,0.178h-3.08v-9.496
				H224.662z M222.622,85.395v3.9h2.054c0.439,0,0.813-0.057,1.126-0.168c0.311-0.111,0.564-0.26,0.764-0.443
				c0.2-0.184,0.347-0.393,0.439-0.625c0.094-0.232,0.143-0.473,0.143-0.719c0-0.639-0.203-1.125-0.607-1.451
				c-0.407-0.33-1.031-0.494-1.878-0.494H222.622z M225.005,93.799c0.833,0,1.462-0.182,1.89-0.543
				c0.428-0.357,0.642-0.865,0.642-1.52c0-0.301-0.058-0.568-0.171-0.809c-0.114-0.24-0.279-0.441-0.494-0.609
				c-0.216-0.168-0.479-0.297-0.792-0.389c-0.312-0.088-0.669-0.133-1.068-0.133h-2.389v4.002H225.005z"/>
			<path display="inline" fill="#154985" d="M238.852,89.596c0,0.734-0.11,1.398-0.328,1.996c-0.22,0.598-0.528,1.109-0.927,1.531
				c-0.397,0.422-0.876,0.75-1.433,0.979c-0.558,0.232-1.172,0.346-1.843,0.346s-1.284-0.113-1.84-0.346
				c-0.555-0.229-1.031-0.557-1.429-0.979c-0.398-0.422-0.707-0.934-0.927-1.531s-0.328-1.262-0.328-1.996
				c0-0.729,0.108-1.393,0.328-1.99s0.528-1.107,0.927-1.531c0.397-0.422,0.874-0.75,1.429-0.982c0.556-0.234,1.169-0.35,1.84-0.35
				s1.285,0.115,1.843,0.346c0.557,0.23,1.035,0.559,1.433,0.982c0.398,0.426,0.707,0.938,0.927,1.535
				C238.741,88.203,238.852,88.867,238.852,89.596z M238.14,89.596c0-0.662-0.09-1.258-0.275-1.785
				c-0.184-0.529-0.441-0.977-0.777-1.342c-0.335-0.367-0.738-0.648-1.208-0.844c-0.471-0.193-0.989-0.293-1.558-0.293
				c-0.563,0-1.08,0.1-1.551,0.293c-0.47,0.195-0.873,0.477-1.21,0.844c-0.34,0.365-0.602,0.812-0.787,1.342
				c-0.185,0.527-0.277,1.123-0.277,1.785c0,0.666,0.093,1.262,0.277,1.789c0.186,0.525,0.447,0.971,0.787,1.34
				c0.337,0.365,0.74,0.645,1.21,0.838c0.471,0.193,0.987,0.289,1.551,0.289c0.568,0,1.087-0.096,1.558-0.289
				c0.47-0.193,0.873-0.473,1.208-0.838c0.336-0.369,0.594-0.814,0.777-1.34C238.05,90.857,238.14,90.262,238.14,89.596z"/>
			<path display="inline" fill="#154985" d="M247.591,94.348H247c-0.075,0-0.141-0.012-0.19-0.037
				c-0.052-0.025-0.101-0.068-0.145-0.137l-3.048-3.854c-0.035-0.049-0.071-0.092-0.11-0.127c-0.038-0.035-0.081-0.064-0.127-0.084
				c-0.048-0.021-0.104-0.035-0.168-0.043c-0.065-0.01-0.145-0.014-0.239-0.014h-1.241v4.295h-0.692v-9.496h2.432
				c1.091,0,1.908,0.209,2.452,0.633c0.544,0.422,0.815,1.043,0.815,1.863c0,0.361-0.062,0.693-0.188,0.992
				c-0.125,0.301-0.306,0.562-0.539,0.789c-0.235,0.227-0.521,0.41-0.854,0.555c-0.333,0.143-0.707,0.24-1.124,0.287
				c0.108,0.068,0.204,0.158,0.289,0.27L247.591,94.348z M243.376,89.541c0.42,0,0.798-0.051,1.132-0.15
				c0.333-0.1,0.615-0.244,0.845-0.432c0.23-0.189,0.406-0.414,0.527-0.678c0.12-0.266,0.182-0.562,0.182-0.893
				c0-0.678-0.222-1.18-0.661-1.504c-0.441-0.326-1.086-0.49-1.93-0.49h-1.739v4.146H243.376z"/>
			<path display="inline" fill="#154985" d="M256.41,94.348h-0.53c-0.062,0-0.113-0.016-0.154-0.051
				c-0.04-0.033-0.071-0.076-0.094-0.131l-1.114-2.758h-4.664l-1.114,2.758c-0.02,0.051-0.05,0.092-0.095,0.127
				c-0.044,0.037-0.098,0.055-0.161,0.055h-0.522l3.886-9.496h0.677L256.41,94.348z M254.309,90.898l-1.932-4.801
				c-0.067-0.156-0.133-0.344-0.194-0.562c-0.027,0.107-0.056,0.209-0.089,0.305c-0.03,0.096-0.063,0.186-0.101,0.266l-1.932,4.793
				H254.309z"/>
			<path display="inline" fill="#154985" d="M263.224,85.436h-3.335v8.912h-0.692v-8.912h-3.356v-0.584h7.384V85.436z"/>
			<path display="inline" fill="#154985" d="M265.512,94.348h-0.692v-9.496h0.692V94.348z"/>
			<path display="inline" fill="#154985" d="M275.541,84.852l-3.922,9.496h-0.609l-3.921-9.496h0.544
				c0.063,0,0.113,0.014,0.154,0.049c0.04,0.033,0.071,0.078,0.094,0.131l3.235,7.879c0.037,0.1,0.071,0.205,0.108,0.316
				c0.034,0.113,0.069,0.227,0.1,0.342c0.027-0.115,0.056-0.229,0.087-0.342c0.033-0.111,0.067-0.217,0.108-0.316l3.229-7.879
				c0.018-0.049,0.049-0.092,0.095-0.127c0.044-0.037,0.099-0.053,0.16-0.053H275.541z"/>
			<path display="inline" fill="#154985" d="M282.822,93.777l-0.014,0.57h-5.692v-9.496h5.692v0.57h-5.001v3.838h4.162v0.557h-4.162
				v3.961H282.822z"/>
		</g>
	</g>
</g>
<g id="Drafts" display="none">
	<text transform="matrix(1 0 0 1 30.2358 64.9453)" display="inline" fill="#66A3D5" font-family="'Lato-Thin'" font-size="60">U M B N</text>
	<circle display="inline" fill="none" stroke="#66A3D5" stroke-miterlimit="10" cx="81.018" cy="47.15" r="3.729"/>
	<circle display="inline" fill="none" stroke="#66A3D5" stroke-miterlimit="10" cx="153.019" cy="47.15" r="3.729"/>
	<circle display="inline" fill="none" stroke="#66A3D5" stroke-miterlimit="10" cx="207.019" cy="47.15" r="3.729"/>
</g>
</svg>
